<svg version="1.1" id="Layer_1" xmlns="http://www.w3.org/2000/svg" xmlns:xlink="http://www.w3.org/1999/xlink" x="0px" y="0px"
	 width="100%" viewBox="0 0 500 500" enable-background="new 0 0 500 500" xml:space="preserve">
<path fill="#000000" opacity="1.000000" stroke="none" 
	d="
M501.000000,2.000000 
	C501.000000,168.262421 501.000000,334.524841 501.000000,501.000000 
	C334.975159,501.000000 168.950211,501.000000 2.462506,500.531342 
	C1.999698,336.566925 1.999581,173.071136 1.999886,9.575375 
	C1.999900,2.001940 2.001702,1.999930 9.512480,1.999918 
	C173.341660,1.999656 337.170837,1.999874 501.000000,2.000000 
M302.650299,243.264801 
	C301.684509,242.820160 300.599152,241.843491 299.774872,242.028671 
	C297.086853,242.632568 293.569733,242.943024 292.162262,244.756302 
	C291.070343,246.163040 291.824921,250.356796 293.254547,252.045090 
	C295.322845,254.487579 298.690613,255.157776 301.371429,251.878510 
	C301.635437,251.555557 302.448486,251.681442 303.031891,252.452637 
	C305.157837,254.038406 306.778351,254.114441 306.800690,250.899323 
	C306.831940,246.404205 306.818695,241.897079 306.485687,237.420319 
	C306.413177,236.445786 304.908173,235.577805 304.062897,234.660767 
	C303.732941,234.907227 303.402954,235.153702 303.072998,235.400177 
	C303.072998,237.701874 303.072998,240.003586 302.650299,243.264801 
M336.094696,249.562729 
	C335.738953,248.203033 335.242371,246.862396 335.055176,245.479874 
	C334.581665,241.983551 332.837585,240.524307 329.252228,241.265884 
	C327.618896,241.603699 325.899445,241.525146 324.023621,241.648315 
	C324.023621,245.485519 324.023621,249.080612 324.023621,253.047348 
	C330.895477,253.126587 324.656769,245.204834 329.650024,244.489517 
	C333.947601,245.603592 328.312500,252.772858 333.762756,253.078888 
	C335.071686,251.304657 336.025269,250.012085 337.598480,249.278381 
	C339.880707,250.547607 342.046814,252.500870 344.474518,252.912903 
	C347.508362,253.427826 346.667511,249.688217 347.498657,248.773010 
	C350.345276,245.638351 349.110779,243.288483 346.764801,242.118408 
	C344.841095,241.158920 341.353912,241.356293 339.624603,242.564728 
	C338.031158,243.678238 337.855896,246.821228 336.094696,249.562729 
M208.134064,321.043030 
	C212.139450,321.550812 213.239471,319.915283 211.749832,316.286041 
	C209.497009,316.040192 207.320206,315.962616 205.210709,315.545013 
	C195.490417,313.620728 192.204727,306.762207 197.981339,298.779999 
	C211.436462,280.187408 225.400726,261.963318 239.479935,243.160919 
	C248.890747,257.003998 257.969269,270.330597 267.014862,283.679535 
	C270.094757,288.224640 273.268707,292.719879 276.088318,297.424530 
	C281.366028,306.230713 277.626068,313.781372 267.527039,315.058228 
	C265.558594,315.307129 263.582672,315.496918 261.224152,315.756439 
	C261.348175,317.367218 261.452301,318.719208 261.514526,319.527222 
	C286.915314,319.527222 311.805176,319.527222 336.958160,319.527222 
	C336.847321,317.495911 336.777740,316.220886 336.684357,314.509796 
	C322.414734,314.681885 313.710632,305.974884 306.033142,295.643433 
	C304.940948,294.173676 303.745972,292.777313 302.702576,291.274780 
	C287.513885,269.402924 272.378387,247.493927 257.114563,225.674683 
	C255.535706,223.417740 255.927612,221.996109 257.447601,220.022476 
	C270.044434,203.666077 282.466644,187.174866 295.108704,170.853806 
	C304.173798,159.150574 314.489502,149.170151 330.312714,148.147705 
	C331.384735,144.729446 330.703339,143.068314 327.021301,143.339203 
	C323.371918,143.607681 319.699188,143.628479 316.036499,143.635132 
	C300.243774,143.663818 284.450928,143.647400 268.409729,143.647400 
	C268.409729,145.915314 268.409729,147.289093 268.409729,148.684402 
	C271.968719,149.057510 275.300934,149.164627 278.531433,149.793991 
	C286.161530,151.280457 289.284424,157.498810 285.668274,164.397995 
	C283.752869,168.052414 281.172150,171.390045 278.658417,174.693130 
	C270.087738,185.955307 261.417114,197.141479 252.774734,208.348999 
	C251.486053,210.020187 250.144104,211.650299 248.535751,213.663757 
	C238.047028,198.166672 227.589462,183.339417 217.829208,168.066544 
	C211.741989,158.541229 215.296539,151.865967 226.456970,150.099442 
	C227.442322,149.943466 228.445480,149.823547 229.440765,149.820694 
	C232.860504,149.810852 233.282501,147.969742 232.434753,145.459778 
	C205.395782,145.459778 178.472717,145.459778 151.736221,145.459778 
	C150.477905,149.179047 151.202896,150.874619 154.787186,150.850983 
	C156.597015,150.839035 158.424515,151.215500 160.219086,151.550110 
	C173.813049,154.084717 182.935577,163.101944 190.608261,173.560410 
	C204.684662,192.747589 218.282089,212.287064 231.952240,231.768768 
	C232.657806,232.774292 232.827042,235.118866 232.150864,235.990173 
	C215.923965,256.900269 199.874466,277.963440 183.057404,298.393555 
	C174.867462,308.343048 163.898926,314.803467 150.848663,317.015625 
	C150.589233,317.059570 150.378784,317.392303 149.970825,317.738556 
	C150.022873,318.884613 150.081146,320.167725 150.120956,321.044159 
	C169.306976,321.044159 188.261230,321.044159 208.134064,321.043030 
M310.607910,242.968964 
	C310.022095,244.124527 309.115875,245.225906 308.909576,246.445648 
	C308.253082,250.327744 310.788422,253.305695 314.714264,253.567047 
	C318.559998,253.823044 321.830109,251.052139 321.874573,247.499786 
	C321.921265,243.768051 318.371490,240.729797 314.417236,241.271942 
	C313.302490,241.424759 312.255493,242.071518 310.607910,242.968964 
z"/>
<path fill="#151515" opacity="1.000000" stroke="none" 
	d="
M501.000000,1.500000 
	C337.170837,1.999874 173.341660,1.999656 9.512480,1.999918 
	C2.001702,1.999930 1.999900,2.001940 1.999886,9.575375 
	C1.999581,173.071136 1.999698,336.566925 1.999869,500.531342 
	C1.666670,499.667511 1.046005,498.335693 1.042686,497.002411 
	C0.983806,473.347687 1.000000,449.692780 1.000000,426.037933 
	C1.000000,284.441956 1.000000,142.845993 1.000000,1.000000 
	C167.666580,1.000000 334.333282,1.000000 501.000000,1.500000 
z"/>
<path fill="#DBDBDB" opacity="1.000000" stroke="none" 
	d="
M207.674774,321.043579 
	C188.261230,321.044159 169.306976,321.044159 150.120956,321.044159 
	C150.081146,320.167725 150.022873,318.884613 149.970825,317.738556 
	C150.378784,317.392303 150.589233,317.059570 150.848663,317.015625 
	C163.898926,314.803467 174.867462,308.343048 183.057404,298.393555 
	C199.874466,277.963440 215.923965,256.900269 232.150864,235.990173 
	C232.827042,235.118866 232.657806,232.774292 231.952240,231.768768 
	C218.282089,212.287064 204.684662,192.747589 190.608261,173.560410 
	C182.935577,163.101944 173.813049,154.084717 160.219086,151.550110 
	C158.424515,151.215500 156.597015,150.839035 154.787186,150.850983 
	C151.202896,150.874619 150.477905,149.179047 151.736221,145.459778 
	C178.472717,145.459778 205.395782,145.459778 232.434753,145.459778 
	C233.282501,147.969742 232.860504,149.810852 229.440765,149.820694 
	C228.445480,149.823547 227.442322,149.943466 226.456970,150.099442 
	C215.296539,151.865967 211.741989,158.541229 217.829208,168.066544 
	C227.589462,183.339417 238.047028,198.166672 248.535751,213.663757 
	C250.144104,211.650299 251.486053,210.020187 252.774734,208.348999 
	C261.417114,197.141479 270.087738,185.955307 278.658417,174.693130 
	C281.172150,171.390045 283.752869,168.052414 285.668274,164.397995 
	C289.284424,157.498810 286.161530,151.280457 278.531433,149.793991 
	C275.300934,149.164627 271.968719,149.057510 268.409729,148.684402 
	C268.409729,147.289093 268.409729,145.915314 268.409729,143.647400 
	C284.450928,143.647400 300.243774,143.663818 316.036499,143.635132 
	C319.699188,143.628479 323.371918,143.607681 327.021301,143.339203 
	C330.703339,143.068314 331.384735,144.729446 330.312714,148.147705 
	C314.489502,149.170151 304.173798,159.150574 295.108704,170.853806 
	C282.466644,187.174866 270.044434,203.666077 257.447601,220.022476 
	C255.927612,221.996109 255.535706,223.417740 257.114563,225.674683 
	C272.378387,247.493927 287.513885,269.402924 302.702576,291.274780 
	C303.745972,292.777313 304.940948,294.173676 306.033142,295.643433 
	C313.710632,305.974884 322.414734,314.681885 336.684357,314.509796 
	C336.777740,316.220886 336.847321,317.495911 336.958160,319.527222 
	C311.805176,319.527222 286.915314,319.527222 261.514526,319.527222 
	C261.452301,318.719208 261.348175,317.367218 261.224152,315.756439 
	C263.582672,315.496918 265.558594,315.307129 267.527039,315.058228 
	C277.626068,313.781372 281.366028,306.230713 276.088318,297.424530 
	C273.268707,292.719879 270.094757,288.224640 267.014862,283.679535 
	C257.969269,270.330597 248.890747,257.003998 239.479935,243.160919 
	C225.400726,261.963318 211.436462,280.187408 197.981339,298.779999 
	C192.204727,306.762207 195.490417,313.620728 205.210709,315.545013 
	C207.320206,315.962616 209.497009,316.040192 211.749832,316.286041 
	C213.239471,319.915283 212.139450,321.550812 207.674774,321.043579 
z"/>
<path fill="#C0C0C0" opacity="1.000000" stroke="none" 
	d="
M310.892670,242.730347 
	C312.255493,242.071518 313.302490,241.424759 314.417236,241.271942 
	C318.371490,240.729797 321.921265,243.768051 321.874573,247.499786 
	C321.830109,251.052139 318.559998,253.823044 314.714264,253.567047 
	C310.788422,253.305695 308.253082,250.327744 308.909576,246.445648 
	C309.115875,245.225906 310.022095,244.124527 310.892670,242.730347 
z"/>
<path fill="#C9C9C9" opacity="1.000000" stroke="none" 
	d="
M336.978851,248.719498 
	C336.025269,250.012085 335.071686,251.304657 333.762756,253.078888 
	C328.312500,252.772858 333.947601,245.603592 329.650024,244.489517 
	C324.656769,245.204834 330.895477,253.126587 324.023621,253.047348 
	C324.023621,249.080612 324.023621,245.485519 324.023621,241.648315 
	C325.899445,241.525146 327.618896,241.603699 329.252228,241.265884 
	C332.837585,240.524307 334.581665,241.983551 335.055176,245.479874 
	C335.242371,246.862396 335.738953,248.203033 336.564484,249.255737 
	C337.034271,248.948730 336.978851,248.719498 336.978851,248.719498 
z"/>
<path fill="#C9C9C9" opacity="1.000000" stroke="none" 
	d="
M337.288666,248.998932 
	C336.978851,248.719498 337.034271,248.948730 337.045105,249.009491 
	C337.855896,246.821228 338.031158,243.678238 339.624603,242.564728 
	C341.353912,241.356293 344.841095,241.158920 346.764801,242.118408 
	C349.110779,243.288483 350.345276,245.638351 347.498657,248.773010 
	C346.667511,249.688217 347.508362,253.427826 344.474518,252.912903 
	C342.046814,252.500870 339.880707,250.547607 337.288666,248.998932 
z"/>
<path fill="#CACACA" opacity="1.000000" stroke="none" 
	d="
M303.006683,251.598999 
	C302.448486,251.681442 301.635437,251.555557 301.371429,251.878510 
	C298.690613,255.157776 295.322845,254.487579 293.254547,252.045090 
	C291.824921,250.356796 291.070343,246.163040 292.162262,244.756302 
	C293.569733,242.943024 297.086853,242.632568 299.774872,242.028671 
	C300.599152,241.843491 301.684509,242.820160 302.819763,242.992172 
	C302.961517,243.003647 302.985382,243.283371 302.727417,243.163422 
	C300.592651,243.506256 298.457062,243.874908 297.099731,245.103470 
	C296.079773,246.026657 296.059296,248.054123 295.593872,249.589996 
	C298.078339,250.234497 300.562775,250.878983 303.018066,251.560699 
	C302.988922,251.597946 303.006683,251.598999 303.006683,251.598999 
z"/>
<path fill="#C5C5C5" opacity="1.000000" stroke="none" 
	d="
M303.060852,243.558685 
	C302.985382,243.283371 302.961517,243.003647 303.031128,242.512421 
	C303.072998,240.003586 303.072998,237.701874 303.072998,235.400177 
	C303.402954,235.153702 303.732941,234.907227 304.062897,234.660767 
	C304.908173,235.577805 306.413177,236.445786 306.485687,237.420319 
	C306.818695,241.897079 306.831940,246.404205 306.800690,250.899323 
	C306.778351,254.114441 305.157837,254.038406 303.019287,252.025818 
	C303.006683,251.598999 302.988922,251.597946 302.984558,251.068268 
	C303.007080,248.211960 303.033966,245.885315 303.060852,243.558685 
z"/>
<path fill="#000000" opacity="1.000000" stroke="none" 
	d="
M302.727386,243.163422 
	C303.033966,245.885315 303.007080,248.211960 303.013702,251.031036 
	C300.562775,250.878983 298.078339,250.234497 295.593872,249.589996 
	C296.059296,248.054123 296.079773,246.026657 297.099731,245.103470 
	C298.457062,243.874908 300.592651,243.506256 302.727386,243.163422 
z"/>
</svg>